<?xml version="1.0" encoding="UTF-8" standalone="no"?>
<!-- Created with Inkscape (http://www.inkscape.org/) -->

<svg
   xmlns:dc="http://purl.org/dc/elements/1.1/"
   xmlns:cc="http://creativecommons.org/ns#"
   xmlns:rdf="http://www.w3.org/1999/02/22-rdf-syntax-ns#"
   xmlns:svg="http://www.w3.org/2000/svg"
   xmlns="http://www.w3.org/2000/svg"
   xmlns:sodipodi="http://sodipodi.sourceforge.net/DTD/sodipodi-0.dtd"
   xmlns:inkscape="http://www.inkscape.org/namespaces/inkscape"
   width="2160"
   height="560"
   viewBox="0 0 571.49999 148.16667"
   version="1.1"
   id="svg8"
   inkscape:version="0.92.1 r15371"
   sodipodi:docname="pcs_logo.svg"
   inkscape:export-filename="/home/gozzarda/Desktop/logo.png"
   inkscape:export-xdpi="9.6000004"
   inkscape:export-ydpi="9.6000004">
  <defs
     id="defs2" />
  <sodipodi:namedview
     id="base"
     pagecolor="#ffffff"
     bordercolor="#666666"
     borderopacity="1.0"
     inkscape:pageopacity="1"
     inkscape:pageshadow="2"
     inkscape:zoom="0.70710678"
     inkscape:cx="1232.8585"
     inkscape:cy="293.62498"
     inkscape:document-units="px"
     inkscape:current-layer="layer1"
     showgrid="true"
     units="px"
     inkscape:window-width="2560"
     inkscape:window-height="1381"
     inkscape:window-x="1440"
     inkscape:window-y="560"
     inkscape:window-maximized="1"
     fit-margin-top="60"
     fit-margin-left="60"
     fit-margin-right="60"
     fit-margin-bottom="60">
    <inkscape:grid
       type="xygrid"
       id="grid3810"
       spacingx="2.6458333"
       spacingy="2.6458333"
       originx="15.874999"
       originy="15.875016" />
  </sodipodi:namedview>
  <metadata
     id="metadata5">
    <rdf:RDF>
      <cc:Work
         rdf:about="">
        <dc:format>image/svg+xml</dc:format>
        <dc:type
           rdf:resource="http://purl.org/dc/dcmitype/StillImage" />
        <dc:title></dc:title>
      </cc:Work>
    </rdf:RDF>
  </metadata>
  <g
     inkscape:label="Layer 1"
     inkscape:groupmode="layer"
     id="layer1"
     transform="translate(15.875,-164.70834)">
    <path
       id="rect3890"
       style="fill:#4c82c4;fill-opacity:1;stroke-width:0.26458332"
       d="m 31.75,212.33334 h 84.66667 c 5.86316,0 10.58333,4.72016 10.58333,10.58333 v 10.58334 c 0,5.86316 -4.72017,10.58333 -10.58333,10.58333 H 31.75 Z M 31.75,297 v -42.33333 l 84.66666,-1e-5 c 11.72633,0 21.16666,-9.44034 21.16666,-21.16667 v -10.58334 c 0,-11.72633 -9.44033,-21.16666 -21.16666,-21.16666 H 21.166666 V 297 C 9.4403334,297.00001 4.6510133e-7,287.55968 4.6510133e-7,275.83334 V 201.75002 C 4.6510133e-7,190.02369 9.4403334,180.58335 21.166666,180.58335 H 137.58333 c 11.72634,0 21.16667,9.44034 21.16667,21.16667 v 74.08332 c 0,11.72634 -9.44033,21.16667 -21.16667,21.16667 z"
       inkscape:connector-curvature="0"
       sodipodi:nodetypes="cssssccccssssccsssssscc" />
    <path
       id="rect3898"
       style="fill:#fcc61c;fill-opacity:1;stroke-width:0.26458332"
       d="M 349.25,265.25001 H 230.1875 c -5.86317,0 -10.58333,-4.72016 -10.58333,-10.58333 v -31.75 c 0,-5.86317 4.72016,-10.58334 10.58333,-10.58334 H 349.25 Z m -119.06251,10.58332 c -11.72633,0 -21.16666,-9.44033 -21.16666,-21.16667 v -31.75 c 0,-11.72633 9.44033,-21.16667 21.16666,-21.16667 l 119.06252,2e-5 c 2e-5,-11.72632 -9.44031,-21.16666 -21.16665,-21.16666 H 211.6667 c -11.72634,0 -21.16667,9.44034 -21.16667,21.16667 v 74.08332 c 0,11.72634 9.44033,21.16667 21.16667,21.16667 h 116.41666 c 11.72634,0 21.16667,-9.44033 21.16665,-21.16667 z"
       inkscape:connector-curvature="0"
       sodipodi:nodetypes="cssssccsssscsssssscs" />
    <path
       id="rect3906-5"
       style="fill:#b42e1c;fill-opacity:1;stroke-width:0.26458332"
       d="m 381,265.25 h 113.77084 c 5.86317,0 10.58334,-4.72016 10.58334,-10.58333 0,-5.86317 -4.72017,-10.58333 -10.58334,-10.58333 l -68.79167,-1e-5 c -11.72634,0 -21.16667,-9.44034 -21.16667,-21.16667 0,-11.72633 9.44033,-21.16667 21.16667,-21.16667 l 113.77079,1e-5 c -2e-5,-11.72633 -9.44035,-21.16666 -21.16669,-21.16666 H 402.1666 c -11.72633,0 -21.16666,9.44033 -21.16666,21.16666 z m 158.74994,10.58333 c 0,11.72633 -9.44033,21.16666 -21.16667,21.16666 H 402.1666 c -11.72633,0 -21.16666,-9.44033 -21.16663,-21.16666 h 113.77085 c 11.72634,0 21.16667,-9.44034 21.16667,-21.16667 0,-11.72633 -9.44033,-21.16667 -21.16667,-21.16667 l -68.79167,1e-5 c -5.86317,0 -10.58334,-4.72016 -10.58334,-10.58333 0,-5.86317 4.72017,-10.58333 10.58334,-10.58333 h 113.77084 z"
       inkscape:connector-curvature="0"
       sodipodi:nodetypes="cssccsscsscccsscssscsscc" />
  </g>
</svg>
