<?xml version="1.0" standalone="no"?>
<!DOCTYPE svg PUBLIC "-//W3C//DTD SVG 20010904//EN"
 "http://www.w3.org/TR/2001/REC-SVG-20010904/DTD/svg10.dtd">
<svg version="1.0" xmlns="http://www.w3.org/2000/svg"
 width="700.000000pt" height="700.000000pt" viewBox="0 0 700.000000 700.000000"
 preserveAspectRatio="xMidYMid meet">
<metadata>
Created by potrace 1.11, written by Peter Selinger 2001-2013
</metadata>
<g transform="translate(0.000000,700.000000) scale(0.100000,-0.100000)"
fill="#000000" stroke="none">
<path d="M1065 6984 c-415 -73 -770 -342 -944 -716 -37 -78 -83 -218 -96 -287
-3 -14 -8 -37 -12 -51 -11 -36 -14 -4765 -3 -4825 5 -27 12 -68 15 -90 22
-131 119 -351 214 -485 44 -63 174 -200 236 -250 134 -108 310 -196 482 -239
97 -24 127 -29 231 -37 81 -6 82 -6 82 17 1 13 1 1303 2 2866 l0 2841 1667 -2
c916 -1 1677 -5 1691 -9 14 -4 45 -10 70 -13 25 -3 91 -21 148 -40 385 -126
685 -422 811 -800 64 -195 69 -252 66 -759 -1 -236 -5 -443 -8 -460 -7 -34
-24 -120 -31 -150 -35 -165 -162 -394 -297 -540 -223 -237 -495 -371 -824
-403 -38 -4 -652 -7 -1362 -7 l-1293 0 0 -1273 0 -1273 1998 4 c1098 1 2008 6
2022 10 14 3 48 12 75 18 312 70 599 267 780 533 63 93 154 291 169 367 2 13
9 44 15 69 7 25 15 68 19 95 9 63 9 4755 0 4810 -33 205 -95 366 -207 535 -59
91 -226 265 -301 315 -25 17 -47 33 -50 36 -3 4 -48 29 -100 57 -82 44 -239
105 -304 118 -12 2 -32 6 -46 9 -14 3 -36 8 -50 12 -14 4 -1096 8 -2405 9
-2007 2 -2393 0 -2460 -12z"/>
<path d="M1910 4136 l0 -954 1306 0 c1447 0 1374 -3 1518 67 148 72 266 205
323 366 l28 80 0 430 c0 237 -4 448 -8 470 -41 191 -208 385 -388 451 -121 44
-87 43 -1466 44 l-1313 0 0 -954z"/>
</g>
</svg>
